<?xml version="1.0" encoding="utf-8"?>
<!-- Generator: Adobe Illustrator 28.0.0, SVG Export Plug-In . SVG Version: 6.00 Build 0)  -->
<svg version="1.1" id="Layer_1" xmlns="http://www.w3.org/2000/svg" xmlns:xlink="http://www.w3.org/1999/xlink" x="0px" y="0px"
	 viewBox="0 0 512 512" style="enable-background:new 0 0 512 512;" xml:space="preserve">
<style type="text/css">
	.st0{display:none;fill:#008EB4;}
	.st1{display:none;fill:url(#SVGID_1_);}
	.st2{fill:url(#SVGID_00000181808224251508864750000011282238382001845409_);}
	.st3{fill:url(#SVGID_00000038378604005920959680000014376208642526283154_);}
	.st4{fill:#ED1C24;}
</style>
<path class="st0" d="M124.62,132.8c-35.72,17.31-63.06,20.33-81.7,19.76c-9.16-0.28-23.48-1.66-24.65,1.96
	c-1.03,3.19,9.26,6.87,25.35,17.67c0,0,21.96,14.74,45.78,47.66c0.94,1.3,3.04,4.27,3.45,8.46c0,0,0.07,0.67,0.07,1.36
	c0.03,3.8-5.56,28.81-29.58,39.4c-13.52,5.96-25.15,3.95-25.35,6.42c-0.24,2.91,16.07,2.06,30.28,12.56
	c11.65,8.61,19.55,23.1,20.27,36.63c0.3,5.7-0.93,6.33-0.55,14.96c0.69,15.4,4.83,18.19,3.6,24.41c-3.08,15.57-33.2,18-32.48,25.33
	c0.52,5.28,15.97,4.04,36.91,14.57c5.18,2.61,19.44,10.33,31.68,25.05c6.05,7.28,12.8,15.4,14.92,27.25
	c2.77,15.46-4.15,27.21-1.81,28.16c3.53,1.45,11.9-28.53,30.28-31.42c21.97-3.45,52.05,32.79,56.34,37.96
	c5.3,6.39,8.26,13.56,12.68,13.09c5.97-0.63,4.3-13.59,13.38-29.45c11.52-20.12,32.79-31.77,47.14-39.63
	c4.28-2.35,7.06-3.87,11.32-5.66c33.91-14.24,71.01-7.25,85.22-3.8c10.78,2.61,16.56,6.26,19.02,3.8
	c4.75-4.76-15.4-18.82-19.72-44.39c-5.11-30.2,14.99-57.84,18.59-62.62c3.49-4.64,3.01-3.04,8.17-9.5
	c22.76-28.5,18.82-42.04,33.81-55.51c16.9-15.2,34.79-9.54,36.62-18.45c1.96-9.51-18.16-17.18-52.82-47
	c-27.82-23.94-28.66-30.88-27.47-34.81c4.1-13.54,39.03-14.08,38.74-20.82c-0.19-4.33-14.57-2.83-23.95-11.78
	c-16.82-16.06-1.21-53.86,2.16-62.1c10.32-25.28,26.34-41.36,23.2-43.94c-2.54-2.09-12.28,8.98-30.99,12.44
	c-10.23,1.89-15.5,0.1-26.06-0.65c-26.66-1.89-67.56,4.24-82.4,18.33c-2.28,2.17-11.11,11.31-22.78,11.2l0,0l0,0
	c-4.77-0.28-3.2-36.62-10.33-38.04c-6.07-1.21-8.59,24.87-28.17,32.73c-18.26,7.33-42.11-4.89-47.89-7.85
	c-17.63-9.03-19.19-17.87-25.35-16.49c-18.24,4.09-2.59,70.15-41.55,96.22C132.55,129.9,127.44,131.85,124.62,132.8z"/>
<linearGradient id="SVGID_1_" gradientUnits="userSpaceOnUse" x1="256.7735" y1="34.6694" x2="256.7735" y2="462.5282">
	<stop  offset="0" style="stop-color:#FFF33B"/>
	<stop  offset="0.0595" style="stop-color:#FFE029"/>
	<stop  offset="0.1303" style="stop-color:#FFD217"/>
	<stop  offset="0.2032" style="stop-color:#FEC90E"/>
	<stop  offset="0.2809" style="stop-color:#FDC70C"/>
	<stop  offset="0.6685" style="stop-color:#F3903F"/>
	<stop  offset="0.7983" style="stop-color:#ED683C"/>
	<stop  offset="0.9441" style="stop-color:#E93E3A"/>
</linearGradient>
<path class="st1" d="M371.84,380.71c36.44-9.53,62.81-7.8,80.38-4.3c8.64,1.72,22.01,5.24,23.66,2.23
	c1.45-2.65-7.75-7.54-21.39-19.66c0,0-18.6-16.53-36.26-49.4c-0.7-1.3-2.24-4.25-2.01-8.01c0,0,0.04-0.6,0.14-1.21
	c0.54-3.36,9.58-24.52,33.93-30c13.7-3.08,24.43,0.56,24.99-1.59c0.65-2.5-13.71-5.18-26.82-15.95
	c-14.16-11.63-27.51-33.23-21.64-51.17c2.2-6.72,6.43-10.92,10.88-15.33c16.49-16.34,34.4-15.51,34.6-21.42
	c0.18-5.35-14.48-6.22-32.8-18.78c-7.91-5.42-20.05-13.75-26.27-27.19c-10.89-23.52,4.19-45.68-4.13-50.98
	c-8.3-5.28-21.67,17.78-41.83,14.57c-20.1-3.2-37.22-30.95-37.98-32.2c-5.27-8.73-6.96-15.45-11.37-15.65
	c-6.18-0.28-9.04,12.72-17.09,23.83c-15.57,21.51-43.48,26.18-50.6,27.38c-18.01,3.02-38.23-1.72-78.68-11.21
	c-17.03-4-28.05-7.27-31.69-2.37c-5.95,8.01,17.25,25.2,12.05,42.32c-5.21,17.15-32.08,11.76-43.85,33.36
	c-7.76,14.24,1.46,21.07-7.47,40.78c-1.86,4.1-9.24,19.4-25.17,28.71c-18.29,10.69-34.4,2.83-37.47,10.39
	c-4.24,10.43,24.49,36.34,43.03,49.95c12.2,8.95,19.45,12.21,19.23,18.1c-0.51,13.44-39.13,19.32-38.23,29.16
	c0.53,5.82,13.37,4.82,20.93,14.24c13.54,16.87-6.91,47.7-11.33,54.43C58,414.38,40.42,425.99,43.01,428.77
	c2.61,2.81,14.33-2.49,31.23-5.99c10.26-2.12,54.91-10.16,92.73,9.27c21.85,11.23,26.8,24.12,40.07,21.56
	c14.98-2.88,14.26-21.02,31.6-24.34c18.4-3.53,39.18,11.08,44.21,14.63c15.36,10.8,15.52,18.85,21.56,18.62
	c17.9-0.67,12.95-61.46,53.78-78.19C363.89,381.99,369.02,381.09,371.84,380.71z"/>
<linearGradient id="SVGID_00000019665086955995031080000012757793200979955600_" gradientUnits="userSpaceOnUse" x1="267.4036" y1="-10.75" x2="267.4036" y2="482.2777" gradientTransform="matrix(0.8835 0.4684 -0.4684 0.8835 156.307 -95.6409)">
	<stop  offset="0" style="stop-color:#FFFFFF"/>
	<stop  offset="1" style="stop-color:#000000"/>
</linearGradient>
<polygon style="fill:url(#SVGID_00000019665086955995031080000012757793200979955600_);" points="501.47,337.84 329.01,346.74 
	238.57,493.85 176.82,332.59 8.96,292.04 143.25,183.47 129.94,11.29 274.69,105.46 434.33,39.6 389.5,206.37 "/>
<linearGradient id="SVGID_00000075857200720870274780000011735565102569535167_" gradientUnits="userSpaceOnUse" x1="273.9128" y1="16.5863" x2="273.9128" y2="509.614" gradientTransform="matrix(0.9867 -0.1627 0.1627 0.9867 -39.7341 47.5362)">
	<stop  offset="0" style="stop-color:#FFF33B"/>
	<stop  offset="0.0595" style="stop-color:#FFE029"/>
	<stop  offset="0.1303" style="stop-color:#FFD217"/>
	<stop  offset="0.2032" style="stop-color:#FEC90E"/>
	<stop  offset="0.2809" style="stop-color:#FDC70C"/>
	<stop  offset="0.6685" style="stop-color:#F3903F"/>
	<stop  offset="0.7983" style="stop-color:#ED683C"/>
	<stop  offset="0.9441" style="stop-color:#E93E3A"/>
</linearGradient>
<polygon style="fill:url(#SVGID_00000075857200720870274780000011735565102569535167_);" points="508.37,209.16 376.57,320.74 
	393.76,492.56 246.92,401.69 88.81,471.14 129.86,303.4 14.95,174.5 187.17,161.7 274.26,12.58 339.64,172.41 "/>
<g>
	<path class="st4" d="M300.15,110.24c-3.63,3.57-115.81,131.86-115.81,131.86l76.01,52.21l-79.76,122.26l149.25-122.95l-75.01-64.56
		L300.15,110.24z"/>
</g>
</svg>
